<svg width="178" height="30" viewBox="0 0 178 30" fill="none" xmlns="http://www.w3.org/2000/svg">
<path fill-rule="evenodd" clip-rule="evenodd" d="M25.327 0.000463384C25.8746 0.454425 25.8188 1.07675 25.8116 1.6929C25.8038 2.33576 25.5983 3.12352 25.8936 3.5798C26.1705 4.00796 26.9921 4.0784 27.5685 4.31951C31.9567 6.15621 34.7373 9.53119 36.5959 13.7803C37.4403 15.7107 37.8081 17.7564 37.9926 19.8396C38.078 20.8042 37.8031 21.094 36.814 21.0963C33.4942 21.104 30.1744 21.0996 26.8545 21.0996C26.548 21.0996 26.2416 21.0996 25.872 21.0996C25.872 21.7281 25.872 22.3 25.872 22.977C26.1803 22.977 26.4802 22.977 26.78 22.977C30.6662 22.977 34.5522 22.9761 38.4384 22.9775C39.8469 22.9781 40.1339 23.4472 39.517 24.7396C39.1186 25.5745 38.7109 26.405 38.3153 27.2411C38.0142 27.8773 38.277 28.304 38.9847 28.213C39.3302 28.1686 39.6978 27.9359 39.9603 27.6877C40.3781 27.2924 40.8042 27.1395 41.2548 27.5114C41.7469 27.9176 41.6431 28.4145 41.2885 28.8792C40.2005 30.305 37.9928 30.3614 36.7486 28.9959C35.6424 27.7819 35.2589 27.7853 34.1188 29.0196C32.8799 30.3606 30.8247 30.3121 29.6292 28.9138C28.6981 27.8247 28.1712 27.824 27.2306 28.9111C25.9725 30.3652 23.8983 30.3626 22.6393 28.9053C21.7027 27.8208 21.1753 27.8239 20.2402 28.9195C19.0492 30.3149 16.985 30.3586 15.7497 29.0146C14.6691 27.839 14.4862 27.8556 13.2351 28.7851C12.9776 28.9762 12.3786 28.9547 12.0794 28.7829C11.659 28.5418 11.6837 28.0403 11.9704 27.6239C12.5689 26.7538 13.4535 26.4064 14.5681 26.3151C14.2737 25.6747 14.0048 25.1021 13.747 24.5249C13.2956 23.5143 13.6217 22.9823 14.7123 22.9794C17.5174 22.972 20.3226 22.9767 23.1277 22.9766C23.4063 22.9766 23.685 22.9766 24.0178 22.9766C24.0178 22.3354 24.0178 21.7633 24.0178 21.0991C23.7085 21.0991 23.4326 21.0993 23.1566 21.0991C20.9691 21.0991 18.7812 21.1212 16.5946 21.0781C16.2093 21.0704 15.6555 20.8898 15.4962 20.6092C15.3393 20.333 15.4718 19.7588 15.6709 19.4343C18.3182 15.1154 20.9994 10.8177 23.672 6.51456C23.7804 6.33986 23.9208 6.17583 23.9874 5.98599C24.168 5.47102 24.1752 5.08317 23.4658 4.92206C21.6373 4.50703 19.8271 4.0126 18.006 3.56404C17.4799 3.43445 17.0848 3.20646 17.1006 2.59881C17.1154 2.0253 17.5208 1.82681 18.0029 1.70633C20.0466 1.19507 22.0894 0.679939 24.1315 0.162339C24.277 0.125423 24.4142 0.0549882 24.5554 0C24.8122 0.000463384 25.0697 0.000463384 25.327 0.000463384ZM27.881 6.45911C30.4231 10.9949 29.1645 15.1525 27.0651 19.2774C30.0945 19.2774 33.0903 19.2774 36.0848 19.2774C36.2454 14.9139 32.0245 8.25287 27.881 6.45911ZM15.919 24.7594C15.912 24.8463 15.8888 24.9052 15.9069 24.9453C16.2758 25.7643 16.6454 26.5829 17.0224 27.398C17.5071 28.4464 18.2539 28.5332 18.9989 27.6324C20.418 25.9169 22.4601 25.9097 23.8734 27.6149C24.5566 28.4391 25.3131 28.4436 25.9884 27.6276C27.4056 25.9146 29.4593 25.9107 30.8637 27.6183C31.5401 28.4402 32.3109 28.4604 32.9727 27.6192C33.8111 26.5538 34.8852 26.2076 36.1855 26.4398C36.3538 26.4697 36.5214 26.5032 36.7018 26.5375C36.9866 25.9297 37.2518 25.3641 37.5353 24.7594C30.2507 24.7594 23.0843 24.7594 15.919 24.7594ZM24.0236 19.2834C24.0236 15.9894 24.0236 12.7689 24.0236 9.54849C23.9812 9.53258 23.9388 9.51682 23.8963 9.50091C21.8899 12.7316 19.8836 15.9625 17.8211 19.2834C19.9661 19.2834 21.9631 19.2834 24.0236 19.2834ZM25.8523 17.6103C27.7931 14.1273 28.3241 9.43017 25.8523 6.88496C25.8523 10.4308 25.8523 13.9315 25.8523 17.6103ZM21.9411 2.55294C21.9405 2.61101 21.9396 2.66909 21.9388 2.72717C22.622 2.89646 23.305 3.06575 24.0305 3.24554C24.0305 2.81521 24.0305 2.44744 24.0305 2.0253C23.2982 2.21034 22.6197 2.38164 21.9411 2.55294Z" fill="white"/>
<path fill-rule="evenodd" clip-rule="evenodd" d="M177.297 11.1202C175.218 11.1202 173.139 11.1202 170.959 11.1202C170.959 16.4953 170.959 21.7986 170.959 27.1414C168.967 27.1414 167.077 27.1414 165.124 27.1414C165.124 21.8353 165.124 16.5481 165.124 11.1737C162.997 11.1737 160.929 11.1737 158.811 11.1737C158.811 9.58503 158.811 8.08305 158.811 6.487C164.975 6.487 171.136 6.487 177.297 6.487C177.297 8.0313 177.297 9.57576 177.297 11.1202Z" fill="white"/>
<path fill-rule="evenodd" clip-rule="evenodd" d="M0 16.0624C1.73936 14.2807 3.47686 12.4973 5.21854 10.7181C5.86618 10.0567 6.5163 9.39757 7.17862 8.75115C7.78642 8.15818 8.52488 8.11678 9.02008 8.62341C9.5318 9.14719 9.50446 9.85401 8.88477 10.4702C6.89828 12.4459 4.89449 14.4041 2.74859 16.5154C4.4759 18.1842 6.11965 19.7713 7.76139 21.3601C7.96451 21.5566 8.17148 21.752 8.35235 21.9684C8.79194 22.4943 8.78468 23.1957 8.35142 23.6469C7.89407 24.123 7.17522 24.1271 6.61701 23.6449C6.42301 23.4773 6.24971 23.2856 6.06853 23.1031C4.04558 21.0653 2.02294 19.0271 0 16.989C0 16.6801 0 16.3712 0 16.0624Z" fill="white"/>
<path fill-rule="evenodd" clip-rule="evenodd" d="M60.8779 25.3783C61.522 23.9208 62.1409 22.5208 62.7151 21.2221C64.1942 21.7578 65.5747 22.4437 67.034 22.7323C68.4164 23.0058 69.8815 22.8849 71.3101 22.8846C71.619 22.8844 71.9563 22.7034 72.2316 22.5285C73.0928 21.9811 73.1657 20.8959 72.298 20.3667C71.6117 19.948 70.8059 19.6985 70.0257 19.465C68.4038 18.9796 66.7296 18.6503 65.1388 18.083C62.8561 17.2688 61.3699 15.7204 61.2579 13.1466C61.1438 10.5191 62.2759 8.57424 64.5462 7.30983C66.4916 6.22644 68.6316 5.96896 70.8187 6.03785C73.0507 6.10813 75.2024 6.53969 77.2301 7.52237C77.6685 7.7346 77.783 7.92844 77.5732 8.40079C77.023 9.63817 76.53 10.9009 75.998 12.193C74.2202 11.2951 72.4535 10.5988 70.5073 10.6236C69.7469 10.6334 68.972 10.7444 68.234 10.9304C67.5416 11.1049 67.0785 11.6072 67.036 12.3703C66.9926 13.1488 67.513 13.5771 68.1464 13.7688C69.6184 14.2145 71.1225 14.5536 72.6015 14.9785C73.5122 15.2402 74.4224 15.5278 75.2946 15.8946C79.7432 17.7653 79.3312 23.1292 76.6739 25.4085C75.1036 26.7555 73.251 27.3491 71.241 27.5457C68.0806 27.8548 65.037 27.3978 62.1374 26.0828C61.7224 25.8947 61.3387 25.6385 60.8779 25.3783Z" fill="white"/>
<path fill-rule="evenodd" clip-rule="evenodd" d="M90.359 17.7665C90.2917 16.1624 89.3445 15.2658 87.6793 15.1418C85.8711 15.0074 84.2148 15.4598 82.6829 16.5444C82.057 15.2669 81.4498 14.0269 80.8027 12.7057C81.0368 12.5567 81.2517 12.3883 81.4917 12.2717C84.5682 10.7795 87.7888 10.3992 91.101 11.2126C93.9715 11.9172 95.7424 13.8815 95.8854 16.8343C96.0503 20.2416 95.9237 23.6628 95.9237 27.1303C94.2889 27.1303 92.6044 27.1303 90.8437 27.1303C90.8437 26.5931 90.8437 26.0421 90.8437 25.353C88.5755 27.9369 85.8765 27.9126 83.0925 26.9102C80.7404 26.0633 79.6455 23.674 80.284 21.2556C80.6751 19.7744 81.6788 18.8306 83.0746 18.4162C84.2437 18.0689 85.4807 17.8939 86.7002 17.7888C87.898 17.6856 89.1113 17.7665 90.359 17.7665ZM90.3581 20.6378C89.1559 20.7055 87.9799 20.7058 86.8241 20.8591C85.9812 20.9707 85.5764 21.5343 85.5621 22.2681C85.5479 22.9929 85.9667 23.5386 86.7311 23.7914C88.8356 24.4879 90.591 23.0565 90.3581 20.6378Z" fill="white"/>
<path fill-rule="evenodd" clip-rule="evenodd" d="M114.392 27.1524C112.537 27.1524 110.746 27.1524 108.904 27.1524C108.904 19.8127 108.904 12.5026 108.904 5.14481C110.723 5.14481 112.534 5.14481 114.392 5.14481C114.392 12.4646 114.392 19.7755 114.392 27.1524Z" fill="white"/>
<path fill-rule="evenodd" clip-rule="evenodd" d="M156.395 27.1592C154.464 27.1592 152.591 27.1592 150.661 27.1592C150.661 20.2858 150.661 13.4351 150.661 6.53552C152.562 6.53552 154.452 6.53552 156.395 6.53552C156.395 13.3843 156.395 20.2359 156.395 27.1592Z" fill="white"/>
<path fill-rule="evenodd" clip-rule="evenodd" d="M137.284 27.3884C133.875 27.3331 131.299 25.1376 131.126 22.0956C130.94 18.8243 133.288 16.2616 136.707 16.0924C137.567 16.05 138.467 16.1326 139.299 16.3468C141.971 17.0353 143.542 19.1866 143.472 21.9116C143.406 24.4581 141.63 26.5677 139.035 27.1433C138.461 27.2708 137.868 27.309 137.284 27.3884ZM139.61 21.719C139.623 20.1895 138.721 19.1672 137.341 19.1485C135.945 19.1295 135.002 20.123 134.982 21.633C134.963 23.1931 135.895 24.2486 137.294 24.2503C138.674 24.2523 139.597 23.2437 139.61 21.719Z" fill="white"/>
<path fill-rule="evenodd" clip-rule="evenodd" d="M105.124 27.1554C103.278 27.1554 101.487 27.1554 99.6421 27.1554C99.6421 21.826 99.6421 16.523 99.6421 11.1702C101.453 11.1702 103.263 11.1702 105.124 11.1702C105.124 16.4742 105.124 21.7783 105.124 27.1554Z" fill="white"/>
<path fill-rule="evenodd" clip-rule="evenodd" d="M121.545 16.3714C122.069 16.3714 122.527 16.3714 123.054 16.3714C123.054 15.4153 123.054 14.5006 123.054 13.5242C124.366 13.5242 125.609 13.5242 126.938 13.5242C126.938 14.4301 126.938 15.3412 126.938 16.3424C127.827 16.3424 128.633 16.3424 129.488 16.3424C129.488 17.3464 129.488 18.2608 129.488 19.2679C128.691 19.2679 127.885 19.2679 127.016 19.2679C127.016 20.6849 126.964 22.0143 127.037 23.3368C127.077 24.0566 127.594 24.3578 128.366 24.2784C128.669 24.2474 128.964 24.1488 129.354 24.0605C129.505 24.4695 129.666 24.8905 129.816 25.3153C129.969 25.7492 130.113 26.1865 130.296 26.7268C128.599 27.5107 126.911 27.5697 125.221 26.8749C123.733 26.2629 123.174 24.9818 123.109 23.4778C123.05 22.1217 123.096 20.7606 123.096 19.3303C122.56 19.3303 122.084 19.3303 121.545 19.3303C121.545 18.3283 121.545 17.3961 121.545 16.3714Z" fill="white"/>
<path fill-rule="evenodd" clip-rule="evenodd" d="M50.3523 15.8549C49.4492 14.9979 48.695 14.3044 47.9657 13.5857C46.9214 12.5567 45.8882 11.5165 44.8643 10.4673C44.2546 9.84249 44.2179 9.14263 44.7308 8.62163C45.229 8.11562 45.9696 8.15439 46.5712 8.75586C48.59 10.7744 50.6037 12.7983 52.6078 14.8316C53.2503 15.4836 53.2498 16.1277 52.5976 16.7888C50.3574 19.0589 48.1081 21.3197 45.8502 23.5722C45.2878 24.1334 44.5521 24.1471 44.0629 23.6609C43.5674 23.1685 43.5705 22.4508 44.1323 21.8781C45.9154 20.0602 47.7134 18.2575 49.5153 16.4584C49.7138 16.2599 49.9742 16.1238 50.3523 15.8549Z" fill="white"/>
<path fill-rule="evenodd" clip-rule="evenodd" d="M102.348 9.26098C100.219 9.25835 98.8179 7.87006 98.9858 5.93358C98.9946 5.83133 99.0006 5.72753 99.0216 5.62744C99.3477 4.07758 101.038 3.05767 102.874 3.30126C104.766 3.55241 105.861 4.70253 105.787 6.36144C105.714 7.98312 104.432 9.17139 102.657 9.26036C102.554 9.26531 102.451 9.26098 102.348 9.26098Z" fill="white"/>
</svg>
