<svg width="110" height="8" viewBox="0 0 110 8" fill="none" xmlns="http://www.w3.org/2000/svg">
<path fill-rule="evenodd" clip-rule="evenodd" d="M46.6632 1.52459C41.5015 1.73122 36.4003 1.98529 31.4259 2.26305C24.384 2.65598 17.3448 3.06247 10.3481 3.70606C8.14564 3.9093 5.90906 4.03802 3.72041 4.29207C2.34651 4.45127 0.524754 4.67819 0.285672 4.72562C0.160622 4.75272 0.106067 4.7934 0.0884387 4.80695C-0.0355096 4.9018 -0.0128936 4.99322 0.0570683 5.06435C0.0851632 5.09484 0.156207 5.16939 0.353422 5.17955C13.5426 5.87396 27.0293 4.51902 40.2345 4.37675C63.1346 4.13286 86.7288 5.10165 109.447 7.21535C109.645 7.23229 109.838 7.14758 109.866 7.02225C109.899 6.9003 109.756 6.78174 109.557 6.76481C86.8004 4.64771 63.1676 3.67554 40.2234 3.92282C27.9167 4.05492 15.3671 5.24391 3.04337 4.83743C3.32652 4.80355 3.60418 4.76967 3.85759 4.73918C6.03742 4.48513 8.26463 4.35981 10.4582 4.15657C17.4401 3.51297 24.4649 3.10649 31.4975 2.71694C40.2234 2.22916 49.3295 1.80913 58.5072 1.61266C61.7904 1.64315 65.0626 1.67365 68.3349 1.71091C75.4137 1.79221 82.5256 2.02932 89.5879 2.34773C91.7143 2.44597 93.8407 2.54758 95.9671 2.63565C96.6722 2.66614 98.4901 2.75419 98.7435 2.74742C99.0575 2.74064 99.1181 2.57806 99.1236 2.55097C99.1401 2.48999 99.1291 2.4053 98.9749 2.33417C98.9583 2.32401 98.8592 2.29011 98.6388 2.26979C85.7978 1.07067 72.0864 0.870845 58.5182 1.15877C44.2063 1.03344 29.8393 0.979216 15.5638 0.921631C15.3594 0.921631 15.1925 1.02327 15.1909 1.1486C15.1898 1.27393 15.3545 1.37557 15.5588 1.37896C25.8956 1.4196 36.2846 1.46023 46.6632 1.52459Z" fill="currentColor"/>
</svg>
