<svg width="323" height="19" viewBox="0 0 323 19" fill="none" xmlns="http://www.w3.org/2000/svg">
<path fill-rule="evenodd" clip-rule="evenodd" d="M137.02 2.28133C121.863 2.88679 106.885 3.63128 92.2778 4.44519C71.6002 5.59657 50.9306 6.78767 30.3857 8.67355C23.9185 9.2691 17.3511 9.64625 10.9245 10.3907C6.8902 10.8572 1.54087 11.5221 0.838836 11.6611C0.471644 11.7405 0.311451 11.8597 0.259688 11.8994C-0.104269 12.1773 -0.0378602 12.4452 0.167573 12.6537C0.25007 12.743 0.45868 12.9614 1.03778 12.9912C39.766 15.026 79.3678 11.0557 118.143 10.6388C185.386 9.92417 254.667 12.7629 321.376 18.9566C321.959 19.0062 322.525 18.758 322.606 18.3907C322.703 18.0334 322.282 17.686 321.7 17.6364C254.878 11.4328 185.483 8.58411 118.111 9.30869C81.9737 9.6958 45.1235 13.1798 8.93645 11.9887C9.76788 11.8895 10.5832 11.7902 11.3273 11.7008C17.7281 10.9564 24.268 10.5892 30.7092 9.99363C51.2105 8.10774 71.838 6.91666 92.4881 5.7752C118.111 4.34589 144.849 3.1151 171.798 2.5394C181.439 2.62874 191.048 2.71811 200.656 2.82729C221.442 3.06551 242.325 3.76031 263.063 4.69333C269.306 4.98117 275.55 5.27892 281.794 5.53699C283.865 5.62632 289.203 5.88435 289.947 5.8645C290.869 5.84464 291.047 5.36825 291.063 5.28885C291.111 5.11019 291.079 4.86203 290.626 4.65359C290.578 4.62381 290.286 4.52449 289.639 4.46494C251.934 0.951231 211.672 0.365706 171.831 1.20939C129.806 0.84214 87.6191 0.683256 45.701 0.514519C45.1009 0.514519 44.6107 0.812334 44.6059 1.17959C44.6027 1.54684 45.0863 1.84466 45.6864 1.85459C76.0388 1.9737 106.545 2.09274 137.02 2.28133Z" fill="currentColor"/>
</svg>
